<?xml version="1.0" encoding="utf-8"?>
<!-- Generator: Adobe Illustrator 16.0.0, SVG Export Plug-In . SVG Version: 6.00 Build 0)  -->
<!DOCTYPE svg PUBLIC "-//W3C//DTD SVG 1.1//EN" "http://www.w3.org/Graphics/SVG/1.1/DTD/svg11.dtd">
<svg version="1.1" id="Layer_1" xmlns="http://www.w3.org/2000/svg" xmlns:xlink="http://www.w3.org/1999/xlink" x="0px" y="0px"
	 width="98.218px" height="14.207px" viewBox="0.552 55.49 98.218 14.207" enable-background="new 0.552 55.49 98.218 14.207"
	 xml:space="preserve">
<path d="M13.211,58.805l-4.307,10.51c-0.031,0.086-0.102,0.136-0.209,0.15c-0.139,0.016-0.293,0.025-0.467,0.033
	s-0.35,0.014-0.525,0.014c-0.123,0-0.207-0.059-0.254-0.174L3.406,58.666L2.078,69.303c-0.016,0.092-0.085,0.143-0.207,0.15
	c-0.141,0.016-0.311,0.029-0.515,0.041s-0.417,0.018-0.642,0.018c-0.108,0-0.162-0.043-0.162-0.127c0-0.055,0.006-0.094,0.014-0.117
	l2.25-12.266l-0.369-1.016c-0.016-0.045-0.023-0.086-0.023-0.115c0-0.123,0.078-0.197,0.23-0.219
	c0.125-0.023,0.27-0.047,0.434-0.064c0.166-0.02,0.328-0.037,0.486-0.053c0.156-0.016,0.301-0.025,0.434-0.033
	c0.129-0.008,0.227-0.012,0.287-0.012c0.086,0,0.15,0.021,0.197,0.068c0.047,0.047,0.088,0.11,0.127,0.196l4.135,10.892l4.238-9.701
	l-0.115-0.959c-0.008-0.008-0.012-0.037-0.012-0.094c0-0.129,0.072-0.211,0.219-0.24c0.123-0.023,0.268-0.047,0.428-0.064
	c0.162-0.02,0.32-0.037,0.475-0.053c0.152-0.016,0.295-0.025,0.422-0.033s0.221-0.012,0.281-0.012c0.193,0,0.301,0.088,0.324,0.266
	l1.572,13.234c0.006,0.031,0.01,0.057,0.01,0.076c0,0.019,0,0.037,0,0.051c0,0.148-0.074,0.232-0.219,0.254
	c-0.131,0.023-0.281,0.047-0.451,0.064c-0.17,0.02-0.336,0.034-0.496,0.047c-0.162,0.012-0.311,0.02-0.445,0.022
	c-0.135,0.002-0.232,0.006-0.295,0.006c-0.068,0-0.127-0.014-0.172-0.041c-0.047-0.026-0.074-0.069-0.082-0.133L13.211,58.805z"/>
<path d="M22.719,69.592c-0.641,0-1.219-0.113-1.738-0.34c-0.521-0.229-0.971-0.537-1.346-0.932
	c-0.379-0.391-0.668-0.855-0.873-1.391c-0.203-0.535-0.305-1.111-0.305-1.728c0-0.679,0.115-1.297,0.35-1.859
	c0.236-0.562,0.561-1.041,0.977-1.438c0.416-0.397,0.912-0.705,1.49-0.925c0.576-0.221,1.213-0.33,1.906-0.33
	c0.639,0,1.223,0.109,1.75,0.33c0.527,0.22,0.977,0.521,1.35,0.906c0.375,0.385,0.666,0.84,0.873,1.363
	c0.209,0.523,0.313,1.088,0.313,1.697c0,0.693-0.117,1.326-0.348,1.898c-0.23,0.573-0.557,1.063-0.975,1.469
	c-0.42,0.401-0.922,0.717-1.502,0.94C24.059,69.48,23.418,69.592,22.719,69.592z M23.26,68.574c0.416,0,0.758-0.088,1.027-0.27
	c0.271-0.183,0.482-0.416,0.637-0.699c0.152-0.285,0.26-0.605,0.318-0.959c0.057-0.354,0.086-0.701,0.086-1.039
	c0-0.416-0.045-0.855-0.133-1.318c-0.088-0.461-0.238-0.885-0.445-1.275c-0.207-0.389-0.48-0.709-0.82-0.963
	c-0.338-0.256-0.758-0.383-1.258-0.383c-0.416,0-0.758,0.092-1.029,0.271c-0.27,0.182-0.48,0.416-0.635,0.705
	c-0.152,0.289-0.262,0.608-0.322,0.959c-0.063,0.352-0.094,0.698-0.094,1.045c0,0.424,0.047,0.867,0.139,1.33
	c0.092,0.461,0.244,0.883,0.451,1.268c0.207,0.387,0.48,0.705,0.82,0.955C22.34,68.451,22.76,68.574,23.26,68.574z"/>
<path d="M36.068,62.928c0-0.408-0.064-0.688-0.195-0.838s-0.336-0.225-0.611-0.225c-0.084,0-0.168,0.002-0.25,0.006
	c-0.08,0.004-0.178,0.018-0.293,0.041l-0.07-0.555c0.418-0.115,0.801-0.215,1.156-0.295c0.352-0.08,0.668-0.148,0.941-0.201
	c0.271-0.055,0.496-0.094,0.67-0.117c0.172-0.023,0.287-0.033,0.34-0.033c0.246,0,0.369,0.137,0.369,0.416v6.594
	c0,0.262,0.018,0.504,0.053,0.723c0.035,0.22,0.074,0.429,0.121,0.63l0.012,0.067c0,0.117-0.078,0.193-0.232,0.23
	c-0.098,0.016-0.213,0.031-0.34,0.049c-0.127,0.016-0.258,0.029-0.393,0.045c-0.135,0.016-0.27,0.025-0.404,0.033
	c-0.134,0.008-0.252,0.014-0.354,0.014c-0.084,0-0.146-0.022-0.189-0.068c-0.043-0.049-0.074-0.116-0.098-0.209l-0.174-0.646
	c-0.361,0.14-0.721,0.271-1.08,0.394c-0.357,0.123-0.697,0.229-1.021,0.317c-0.322,0.089-0.619,0.158-0.889,0.214
	c-0.27,0.053-0.498,0.079-0.684,0.079c-0.43,0-0.801-0.067-1.113-0.207c-0.313-0.141-0.568-0.331-0.768-0.577
	c-0.201-0.246-0.35-0.545-0.445-0.896c-0.095-0.351-0.143-0.738-0.143-1.162l0.055-3.821c0.008-0.408-0.055-0.688-0.189-0.839
	c-0.134-0.149-0.34-0.225-0.617-0.225c-0.086,0-0.168,0.002-0.248,0.006c-0.082,0.004-0.18,0.019-0.295,0.041l-0.068-0.556
	c0.414-0.114,0.799-0.215,1.154-0.295c0.354-0.08,0.668-0.147,0.941-0.201c0.271-0.055,0.496-0.094,0.668-0.116
	c0.176-0.022,0.287-0.033,0.342-0.033c0.248,0,0.369,0.138,0.369,0.416l-0.057,4.492v0.174c0,0.416,0.031,0.779,0.098,1.092
	c0.066,0.312,0.174,0.572,0.33,0.783c0.154,0.213,0.352,0.373,0.6,0.479c0.246,0.107,0.551,0.162,0.912,0.162
	c0.115,0,0.256-0.016,0.422-0.041c0.166-0.026,0.342-0.063,0.531-0.114c0.189-0.05,0.381-0.109,0.578-0.181
	c0.195-0.067,0.383-0.141,0.559-0.221L36.068,62.928L36.068,62.928z"/>
<path d="M45.979,63.459c-0.084-0.285-0.168-0.543-0.254-0.773c-0.084-0.229-0.193-0.43-0.328-0.596
	c-0.135-0.166-0.307-0.293-0.516-0.381c-0.207-0.088-0.473-0.133-0.797-0.133c-0.201,0-0.398,0.02-0.6,0.059
	c-0.201,0.037-0.381,0.1-0.543,0.186c-0.162,0.085-0.293,0.195-0.393,0.335c-0.1,0.139-0.15,0.311-0.15,0.52
	c0,0.207,0.059,0.39,0.172,0.543c0.117,0.154,0.27,0.291,0.463,0.41c0.193,0.119,0.416,0.229,0.67,0.328
	c0.254,0.103,0.516,0.201,0.785,0.301c0.324,0.115,0.645,0.248,0.959,0.394c0.316,0.146,0.6,0.317,0.85,0.52
	s0.455,0.438,0.611,0.711c0.158,0.273,0.236,0.6,0.236,0.975c0,0.486-0.123,0.9-0.375,1.248c-0.25,0.347-0.57,0.631-0.965,0.851
	c-0.391,0.221-0.824,0.381-1.299,0.483c-0.473,0.104-0.934,0.156-1.379,0.156c-0.271,0-0.574-0.029-0.914-0.086
	c-0.338-0.059-0.654-0.152-0.951-0.283c-0.297-0.131-0.547-0.305-0.746-0.521c-0.201-0.215-0.301-0.479-0.301-0.795
	c0-0.377,0.127-0.652,0.381-0.82c0.254-0.17,0.58-0.256,0.971-0.256c0.086,0,0.158,0.004,0.221,0.008
	c0.061,0.004,0.135,0.015,0.219,0.029v0.194c0,0.509,0.121,0.898,0.365,1.172c0.24,0.273,0.645,0.41,1.205,0.41
	c0.209,0,0.406-0.021,0.594-0.069c0.191-0.045,0.355-0.113,0.498-0.207c0.143-0.093,0.258-0.209,0.348-0.353
	c0.086-0.143,0.133-0.309,0.133-0.502c0-0.238-0.063-0.44-0.182-0.606c-0.119-0.164-0.275-0.313-0.473-0.439
	c-0.195-0.127-0.42-0.239-0.674-0.34c-0.256-0.1-0.518-0.205-0.787-0.313c-0.314-0.114-0.631-0.241-0.947-0.381
	c-0.314-0.139-0.6-0.307-0.848-0.502c-0.252-0.197-0.455-0.434-0.613-0.711c-0.158-0.274-0.236-0.611-0.236-1.004
	c0-0.479,0.125-0.879,0.375-1.207c0.252-0.326,0.566-0.594,0.947-0.797c0.381-0.205,0.795-0.35,1.24-0.439
	c0.447-0.088,0.869-0.133,1.26-0.133c0.379,0,0.744,0.023,1.1,0.07c0.352,0.045,0.703,0.121,1.051,0.23
	c0.061,0.016,0.092,0.047,0.092,0.092c0.014,0.133,0.027,0.311,0.039,0.537c0.012,0.226,0.021,0.461,0.029,0.699
	c0.008,0.237,0.014,0.465,0.018,0.676c0.004,0.213,0.006,0.367,0.006,0.467L45.979,63.459z"/>
<path d="M56.568,68.379c-0.369,0.178-0.758,0.34-1.166,0.49c-0.408,0.152-0.807,0.279-1.195,0.389
	c-0.389,0.105-0.75,0.189-1.086,0.248c-0.334,0.057-0.613,0.086-0.836,0.086c-0.625,0-1.176-0.117-1.658-0.352
	c-0.482-0.236-0.887-0.547-1.213-0.936c-0.328-0.392-0.576-0.839-0.744-1.349c-0.17-0.508-0.254-1.035-0.254-1.58
	c0-0.709,0.129-1.354,0.391-1.937c0.264-0.58,0.619-1.078,1.068-1.489c0.451-0.41,0.977-0.73,1.576-0.959
	c0.602-0.228,1.236-0.341,1.906-0.341c0.439,0,0.828,0.068,1.168,0.203c0.338,0.136,0.623,0.318,0.854,0.554
	c0.23,0.235,0.408,0.518,0.533,0.85c0.121,0.332,0.184,0.693,0.184,1.086c0,0.341-0.064,0.763-0.197,1.271L50.472,64.9
	c0.031,0.486,0.127,0.929,0.289,1.33c0.162,0.398,0.39,0.746,0.687,1.037c0.297,0.293,0.656,0.521,1.086,0.685
	c0.426,0.159,0.918,0.239,1.473,0.239c0.369,0,0.764-0.043,1.182-0.131c0.422-0.09,0.797-0.199,1.127-0.33L56.568,68.379z
	 M54.005,63.945c0.021-0.109,0.037-0.213,0.045-0.313c0.008-0.1,0.014-0.202,0.014-0.313c0-0.215-0.033-0.42-0.1-0.61
	c-0.066-0.192-0.16-0.36-0.283-0.504c-0.123-0.142-0.277-0.254-0.463-0.334c-0.184-0.082-0.391-0.121-0.623-0.121
	c-0.369,0-0.688,0.067-0.953,0.201c-0.264,0.135-0.484,0.313-0.658,0.536c-0.172,0.224-0.303,0.484-0.387,0.781
	c-0.086,0.295-0.131,0.605-0.139,0.931L54.005,63.945z"/>
<path d="M65.359,59.117c-0.078-0.424-0.203-0.787-0.375-1.092c-0.174-0.306-0.389-0.558-0.644-0.756
	c-0.254-0.201-0.541-0.351-0.86-0.445c-0.318-0.096-0.662-0.145-1.033-0.145c-0.361,0-0.707,0.043-1.039,0.133
	c-0.332,0.088-0.623,0.229-0.877,0.42c-0.254,0.192-0.457,0.438-0.607,0.74c-0.148,0.301-0.225,0.657-0.225,1.073
	c0,0.369,0.088,0.688,0.266,0.953s0.414,0.498,0.711,0.692c0.295,0.195,0.637,0.371,1.021,0.525
	c0.384,0.154,0.785,0.307,1.201,0.461c0.461,0.178,0.924,0.369,1.385,0.572c0.463,0.205,0.877,0.451,1.244,0.746
	c0.365,0.291,0.66,0.646,0.889,1.061c0.227,0.416,0.34,0.93,0.34,1.537c0,0.531-0.074,1.002-0.227,1.41
	c-0.148,0.406-0.357,0.764-0.621,1.066c-0.268,0.305-0.576,0.561-0.932,0.77c-0.354,0.207-0.734,0.375-1.144,0.502
	S63,69.562,62.557,69.615c-0.441,0.053-0.88,0.082-1.312,0.082c-0.517,0-1.029-0.031-1.543-0.094
	c-0.511-0.063-1.021-0.15-1.529-0.267c-0.067-0.017-0.125-0.047-0.166-0.098c-0.043-0.052-0.067-0.103-0.075-0.156
	c-0.017-0.162-0.031-0.397-0.045-0.711c-0.017-0.312-0.031-0.629-0.041-0.953c-0.013-0.321-0.021-0.614-0.029-0.877
	c-0.008-0.262-0.012-0.416-0.012-0.461l0.575-0.06c0.058,0.463,0.177,0.863,0.365,1.201s0.428,0.617,0.717,0.838
	c0.289,0.22,0.619,0.381,0.992,0.484s0.776,0.154,1.209,0.154c0.383,0,0.756-0.043,1.119-0.131c0.36-0.09,0.682-0.232,0.965-0.428
	c0.28-0.197,0.504-0.449,0.674-0.757c0.17-0.309,0.254-0.684,0.254-1.12c0-0.361-0.088-0.671-0.264-0.925
	c-0.179-0.254-0.414-0.479-0.711-0.676c-0.298-0.195-0.638-0.371-1.019-0.524c-0.381-0.154-0.772-0.313-1.184-0.474
	c-0.461-0.187-0.924-0.383-1.385-0.597c-0.463-0.211-0.877-0.469-1.242-0.768c-0.365-0.301-0.662-0.664-0.891-1.092
	c-0.228-0.428-0.34-0.953-0.34-1.576c0-0.756,0.147-1.387,0.444-1.896c0.295-0.508,0.685-0.916,1.166-1.223s1.028-0.527,1.642-0.658
	c0.611-0.131,1.237-0.196,1.875-0.196c0.424,0,0.887,0.032,1.387,0.1c0.502,0.064,0.973,0.152,1.41,0.261
	c0.069,0.016,0.125,0.047,0.168,0.098c0.041,0.051,0.065,0.102,0.074,0.156c0.016,0.16,0.03,0.387,0.045,0.676
	c0.016,0.289,0.03,0.582,0.047,0.877c0.016,0.297,0.026,0.564,0.035,0.803c0.008,0.24,0.012,0.381,0.012,0.428L65.359,59.117z"/>
<path d="M67.876,61.195c0.199-0.016,0.42-0.029,0.658-0.045c0.237-0.017,0.473-0.031,0.702-0.047v-1.779
	c0-0.162,0.017-0.279,0.05-0.352c0.028-0.074,0.098-0.132,0.207-0.168c0.146-0.054,0.297-0.107,0.455-0.162
	c0.157-0.056,0.309-0.103,0.45-0.146c0.144-0.041,0.271-0.076,0.381-0.104c0.111-0.027,0.197-0.039,0.261-0.039
	c0.17,0,0.254,0.095,0.254,0.287V61c0.519-0.025,0.992-0.041,1.427-0.053c0.436-0.012,0.771-0.018,1.012-0.018
	c0.062,0,0.117,0.02,0.166,0.059c0.051,0.037,0.076,0.098,0.076,0.184v0.023l-0.045,0.717l-2.636,0.012v4.906
	c0,0.518,0.14,0.893,0.416,1.127s0.64,0.354,1.086,0.354c0.209,0,0.44-0.024,0.699-0.076c0.258-0.051,0.562-0.139,0.905-0.271
	l0.242,0.705c-0.291,0.131-0.592,0.252-0.895,0.363c-0.305,0.11-0.596,0.211-0.871,0.295c-0.279,0.084-0.531,0.149-0.758,0.196
	c-0.229,0.047-0.402,0.068-0.525,0.068c-0.348,0-0.664-0.053-0.953-0.162c-0.289-0.106-0.537-0.27-0.744-0.484
	c-0.209-0.215-0.371-0.479-0.483-0.791c-0.117-0.312-0.177-0.672-0.177-1.079v-5.142l-1.327,0.035L67.876,61.195z"/>
<path d="M75.973,61.611c0.399-0.162,0.795-0.305,1.184-0.428s0.756-0.226,1.098-0.306c0.344-0.082,0.654-0.144,0.936-0.187
	c0.283-0.043,0.515-0.063,0.699-0.063c0.555,0,1.021,0.063,1.396,0.19c0.379,0.127,0.682,0.33,0.914,0.605
	c0.23,0.277,0.396,0.631,0.494,1.057c0.102,0.429,0.147,0.941,0.141,1.543l-0.059,3.767c-0.008,0.237,0.008,0.461,0.045,0.67
	c0.039,0.207,0.082,0.41,0.127,0.61c0.008,0.009,0.014,0.039,0.014,0.093c0,0.114-0.076,0.187-0.232,0.207
	c-0.1,0.022-0.213,0.047-0.34,0.063c-0.127,0.021-0.256,0.035-0.387,0.047c-0.131,0.013-0.262,0.021-0.393,0.023
	c-0.131,0.002-0.246,0.006-0.348,0.006c-0.085,0-0.146-0.023-0.189-0.068c-0.043-0.049-0.076-0.116-0.1-0.209l-0.148-0.555
	c-0.293,0.131-0.594,0.252-0.902,0.365c-0.307,0.111-0.602,0.207-0.883,0.287s-0.537,0.145-0.768,0.191
	c-0.231,0.045-0.42,0.067-0.566,0.067c-0.408,0-0.764-0.075-1.062-0.225c-0.3-0.15-0.547-0.339-0.738-0.566
	c-0.193-0.228-0.336-0.478-0.428-0.752c-0.095-0.271-0.14-0.532-0.14-0.778c0-0.439,0.078-0.81,0.235-1.113
	c0.156-0.305,0.371-0.557,0.644-0.758c0.238-0.179,0.519-0.322,0.836-0.438c0.318-0.116,0.673-0.207,1.058-0.272
	c0.385-0.064,0.801-0.111,1.246-0.146c0.446-0.029,0.916-0.054,1.41-0.067l0.012-0.394c0.008-0.354-0.014-0.67-0.063-0.953
	c-0.051-0.28-0.142-0.519-0.271-0.709c-0.133-0.192-0.31-0.338-0.531-0.438c-0.225-0.101-0.506-0.15-0.844-0.15
	c-0.416,0-0.851,0.047-1.299,0.139c-0.451,0.092-0.965,0.232-1.543,0.416L75.973,61.611z M80.753,65.262
	c-0.36,0.023-0.698,0.043-1.017,0.063c-0.316,0.021-0.604,0.049-0.866,0.088c-0.263,0.037-0.492,0.096-0.693,0.178
	c-0.198,0.08-0.358,0.195-0.483,0.341c-0.092,0.108-0.17,0.243-0.23,0.405c-0.062,0.16-0.092,0.338-0.092,0.531
	c0,0.162,0.025,0.325,0.074,0.496c0.051,0.168,0.139,0.325,0.266,0.467c0.127,0.144,0.299,0.26,0.514,0.354
	c0.215,0.092,0.488,0.137,0.82,0.137c0.047,0,0.121-0.008,0.225-0.021c0.104-0.016,0.23-0.041,0.381-0.074
	c0.15-0.035,0.318-0.084,0.502-0.145c0.187-0.062,0.373-0.141,0.566-0.232L80.753,65.262z"/>
<path d="M84.333,61.195c0.201-0.016,0.422-0.029,0.66-0.045c0.237-0.017,0.473-0.031,0.702-0.047v-1.779
	c0-0.162,0.017-0.279,0.048-0.352c0.03-0.074,0.1-0.132,0.207-0.168c0.146-0.054,0.299-0.107,0.457-0.162
	c0.157-0.056,0.307-0.103,0.45-0.146c0.144-0.041,0.271-0.076,0.381-0.104c0.111-0.027,0.197-0.039,0.261-0.039
	c0.17,0,0.254,0.095,0.254,0.287V61c0.517-0.025,0.992-0.041,1.427-0.053c0.436-0.012,0.771-0.018,1.012-0.018
	c0.061,0,0.117,0.02,0.166,0.059c0.051,0.037,0.076,0.098,0.076,0.184v0.023l-0.047,0.717l-2.634,0.012v4.906
	c0,0.518,0.14,0.893,0.416,1.127s0.64,0.354,1.086,0.354c0.207,0,0.438-0.024,0.699-0.076c0.258-0.051,0.562-0.139,0.905-0.271
	l0.242,0.705c-0.293,0.131-0.592,0.252-0.895,0.363c-0.305,0.11-0.596,0.211-0.873,0.295s-0.529,0.149-0.756,0.196
	c-0.229,0.047-0.402,0.068-0.527,0.068c-0.346,0-0.662-0.053-0.951-0.162c-0.289-0.106-0.537-0.27-0.744-0.484
	c-0.209-0.215-0.371-0.479-0.485-0.791c-0.115-0.312-0.175-0.672-0.175-1.079v-5.142l-1.327,0.035L84.333,61.195z"/>
<path d="M97.605,63.459c-0.084-0.285-0.168-0.543-0.254-0.773c-0.084-0.229-0.193-0.43-0.328-0.596s-0.308-0.293-0.517-0.381
	c-0.207-0.088-0.473-0.133-0.797-0.133c-0.201,0-0.399,0.02-0.601,0.059c-0.2,0.037-0.383,0.1-0.543,0.186
	c-0.162,0.085-0.293,0.195-0.393,0.335c-0.1,0.139-0.15,0.311-0.15,0.52c0,0.207,0.06,0.39,0.172,0.543
	c0.117,0.154,0.271,0.291,0.464,0.41c0.192,0.119,0.416,0.229,0.67,0.328c0.254,0.103,0.517,0.201,0.784,0.301
	c0.324,0.115,0.646,0.248,0.96,0.394c0.313,0.146,0.6,0.317,0.85,0.52s0.453,0.438,0.611,0.711c0.157,0.273,0.235,0.6,0.235,0.975
	c0,0.486-0.123,0.9-0.375,1.248c-0.25,0.347-0.569,0.631-0.965,0.851c-0.393,0.221-0.824,0.381-1.299,0.483
	c-0.473,0.104-0.934,0.156-1.381,0.156c-0.27,0-0.572-0.029-0.912-0.086c-0.338-0.059-0.656-0.152-0.951-0.283
	c-0.297-0.131-0.547-0.305-0.746-0.521c-0.201-0.215-0.301-0.479-0.301-0.795c0-0.377,0.127-0.652,0.381-0.82
	c0.254-0.17,0.578-0.256,0.971-0.256c0.086,0,0.158,0.004,0.222,0.008c0.062,0.004,0.135,0.015,0.219,0.029v0.194
	c0,0.509,0.121,0.898,0.363,1.172c0.241,0.274,0.646,0.41,1.207,0.41c0.209,0,0.405-0.021,0.594-0.069
	c0.19-0.045,0.354-0.113,0.498-0.207c0.144-0.093,0.259-0.209,0.347-0.353c0.088-0.143,0.135-0.309,0.135-0.502
	c0-0.238-0.063-0.44-0.183-0.606c-0.118-0.164-0.274-0.313-0.473-0.439s-0.42-0.239-0.677-0.34c-0.254-0.1-0.516-0.205-0.784-0.313
	c-0.313-0.114-0.634-0.241-0.947-0.381c-0.313-0.139-0.601-0.307-0.849-0.502c-0.252-0.197-0.454-0.434-0.612-0.711
	c-0.158-0.274-0.235-0.611-0.235-1.004c0-0.479,0.125-0.879,0.375-1.207c0.252-0.326,0.565-0.594,0.946-0.797
	c0.381-0.205,0.795-0.35,1.24-0.439c0.446-0.088,0.866-0.133,1.26-0.133c0.379,0,0.744,0.023,1.099,0.07
	c0.354,0.045,0.705,0.121,1.051,0.23c0.062,0.016,0.094,0.047,0.094,0.092c0.014,0.133,0.027,0.311,0.039,0.537
	c0.012,0.226,0.021,0.461,0.029,0.699c0.008,0.237,0.014,0.465,0.018,0.676c0.004,0.213,0.006,0.367,0.006,0.467L97.605,63.459z"/>
</svg>
